<svg width="40" height="35" viewBox="0 0 40 35" fill="none" xmlns="http://www.w3.org/2000/svg">
<path d="M0 32.7338V31.8106C0.829346 31.251 1.75439 30.2438 2.77512 28.789C3.85965 27.2782 4.78469 25.4596 5.55024 23.3333C6.31579 21.1511 6.69856 18.8569 6.69856 16.4508C6.69856 14.94 6.37959 13.709 5.74163 12.7578C5.16746 11.7506 4.30622 10.6874 3.15789 9.56834C2.20096 8.61711 1.4992 7.80576 1.05263 7.13429C0.606061 6.40687 0.382775 5.56754 0.382775 4.61631C0.382775 3.16147 0.829346 2.04236 1.72249 1.25899C2.67943 0.419664 3.92344 0 5.45455 0C7.11324 0 8.67624 0.643485 10.1435 1.93046C11.6108 3.21743 12.7592 4.95204 13.5885 7.13429C14.4817 9.26059 14.9282 11.4988 14.9282 13.8489C14.9282 17.2622 14.2584 20.4516 12.9187 23.4173C11.5789 26.3269 9.95215 28.789 8.03828 30.8034C6.1244 32.8177 4.37002 34.2166 2.77512 35H2.67943L0 32.7338ZM25.1675 32.7338V31.8106C25.9968 31.251 26.9218 30.2438 27.9426 28.789C28.9633 27.2782 29.8565 25.4596 30.622 23.3333C31.3876 21.1511 31.7703 18.8569 31.7703 16.4508C31.7703 14.94 31.4514 13.709 30.8134 12.7578C30.2392 11.7506 29.378 10.6874 28.2297 9.56834C27.2727 8.61711 26.571 7.80576 26.1244 7.13429C25.6778 6.40687 25.4545 5.56754 25.4545 4.61631C25.4545 3.16147 25.9011 2.04236 26.7943 1.25899C27.7512 0.419664 28.9952 0 30.5263 0C32.185 0 33.748 0.643485 35.2153 1.93046C36.6826 3.21743 37.8309 4.95204 38.6603 7.13429C39.5534 9.26059 40 11.4988 40 13.8489C40 17.2622 39.3301 20.4516 37.9904 23.4173C36.6507 26.3269 35.0239 28.789 33.11 30.8034C31.1962 32.8177 29.4418 34.2166 27.8469 35H27.7512L25.1675 32.7338Z" fill="#BF7F00"/>
</svg>
